<?xml version="1.0" encoding="utf-8"?>
<!-- Generator: Adobe Illustrator 23.0.2, SVG Export Plug-In . SVG Version: 6.00 Build 0)  -->
<svg version="1.1" id="Layer_1" xmlns="http://www.w3.org/2000/svg" xmlns:xlink="http://www.w3.org/1999/xlink" x="0px" y="0px"
	 viewBox="0 0 240.2 59" style="enable-background:new 0 0 240.2 59;" xml:space="preserve">
<style type="text/css">
	.st0{fill:#CB0000;}
</style>
<g>
	<path class="st0" d="M0.6,57.6C0.2,57.2,0,56.8,0,56.2V4.2c0-0.6,0.2-1.1,0.5-1.4c0.3-0.4,0.8-0.6,1.4-0.6h21.4
		c6.5,0,11.5,1.5,15.2,4.6c3.7,3,5.5,7.5,5.5,13.3c0,5.8-1.8,10.1-5.5,13.1c-3.7,3-8.7,4.4-15.2,4.4H11.6v18.7
		c0,0.6-0.2,1.1-0.6,1.4c-0.4,0.3-0.9,0.5-1.4,0.5H1.9C1.4,58.2,0.9,58,0.6,57.6z M23,28.6c3.1,0,5.5-0.7,7.1-2.2
		c1.6-1.5,2.4-3.6,2.4-6.4c0-2.8-0.8-4.9-2.4-6.5c-1.6-1.5-4-2.3-7.2-2.3H11.4v17.4H23z"/>
	<path class="st0" d="M46.1,9.2c-0.4-0.4-0.6-0.8-0.6-1.4V2c0-0.6,0.2-1.1,0.6-1.4C46.5,0.2,46.9,0,47.4,0h7.4
		c0.6,0,1.1,0.2,1.4,0.6c0.4,0.4,0.6,0.9,0.6,1.4v5.8c0,0.5-0.2,1-0.6,1.4c-0.4,0.4-0.9,0.6-1.4,0.6h-7.4
		C46.9,9.8,46.5,9.6,46.1,9.2z M46.4,57.6c-0.4-0.4-0.6-0.8-0.6-1.4V18.5c0-0.6,0.2-1.1,0.6-1.4c0.4-0.3,0.8-0.5,1.4-0.5h6.8
		c0.5,0,1,0.2,1.4,0.6c0.4,0.4,0.6,0.8,0.6,1.4v37.8c0,0.5-0.2,1-0.6,1.4c-0.4,0.4-0.8,0.6-1.4,0.6h-6.8
		C47.2,58.2,46.8,58,46.4,57.6z"/>
	<path class="st0" d="M61.6,57.6c-0.4-0.4-0.6-0.8-0.6-1.4V18.5c0-0.6,0.2-1.1,0.6-1.4c0.4-0.3,0.8-0.5,1.4-0.5h6.6
		c0.6,0,1.1,0.2,1.4,0.5c0.3,0.3,0.5,0.8,0.5,1.4v3.3c3.3-4,7.7-6,13.4-6c4.9,0,8.8,1.6,11.7,4.8c2.9,3.2,4.3,7.6,4.3,13.2v22.5
		c0,0.5-0.2,1-0.5,1.4c-0.3,0.4-0.8,0.6-1.4,0.6h-7.2c-0.5,0-1-0.2-1.4-0.6c-0.4-0.4-0.6-0.8-0.6-1.4v-22c0-3.1-0.8-5.5-2.3-7.2
		c-1.5-1.7-3.7-2.6-6.5-2.6c-2.7,0-4.9,0.9-6.6,2.6c-1.7,1.8-2.5,4.2-2.5,7.2v22c0,0.5-0.2,1-0.5,1.4c-0.3,0.4-0.8,0.6-1.4,0.6H63
		C62.4,58.2,62,58,61.6,57.6z"/>
	<path class="st0" d="M108.1,53.8c-2.9-3.4-4.5-8-4.7-13.8l-0.1-2.6l0.1-2.6c0.2-5.7,1.8-10.2,4.7-13.7c2.9-3.5,7.1-5.2,12.4-5.2
		c5.1,0,9.2,1.8,12.2,5.3V3.3c0-0.6,0.2-1.1,0.6-1.4c0.4-0.3,0.8-0.5,1.4-0.5h7c0.6,0,1.1,0.2,1.4,0.5c0.3,0.3,0.5,0.8,0.5,1.4v53
		c0,0.5-0.2,1-0.5,1.4c-0.3,0.4-0.8,0.6-1.4,0.6h-6.5c-0.5,0-1-0.2-1.4-0.6c-0.4-0.4-0.6-0.8-0.6-1.4v-3c-2.9,3.8-7.2,5.7-12.7,5.7
		C115.1,59,111,57.2,108.1,53.8z M130.3,47.4c1.5-1.9,2.3-4.4,2.4-7.2c0.1-0.6,0.1-1.7,0.1-3c0-1.4,0-2.5-0.1-3.1
		c-0.1-2.7-0.9-4.9-2.5-6.8c-1.5-1.9-3.8-2.8-6.7-2.8c-5.7,0-8.7,3.5-9.1,10.6l-0.1,2.4l0.1,2.4c0.4,7,3.4,10.6,9.1,10.6
		C126.6,50.3,128.8,49.3,130.3,47.4z"/>
	<path class="st0" d="M148.4,9.2c-0.4-0.4-0.6-0.8-0.6-1.4V2c0-0.6,0.2-1.1,0.6-1.4c0.4-0.4,0.8-0.6,1.4-0.6h7.4
		c0.6,0,1.1,0.2,1.4,0.6c0.4,0.4,0.6,0.9,0.6,1.4v5.8c0,0.5-0.2,1-0.6,1.4c-0.4,0.4-0.9,0.6-1.4,0.6h-7.4
		C149.2,9.8,148.8,9.6,148.4,9.2z M148.7,57.6c-0.4-0.4-0.6-0.8-0.6-1.4V18.5c0-0.6,0.2-1.1,0.6-1.4c0.4-0.3,0.8-0.5,1.4-0.5h6.8
		c0.5,0,1,0.2,1.4,0.6c0.4,0.4,0.6,0.8,0.6,1.4v37.8c0,0.5-0.2,1-0.6,1.4c-0.4,0.4-0.8,0.6-1.4,0.6h-6.8
		C149.5,58.2,149.1,58,148.7,57.6z"/>
	<path class="st0" d="M169,57.1c-2.7-1.2-4.7-2.7-6-4.3c-1.3-1.6-2-3-2-4.2c0-0.5,0.2-1,0.5-1.3c0.3-0.3,0.8-0.5,1.2-0.5h6.6
		c0.4,0,0.8,0.2,1.1,0.6c0.3,0.2,0.9,0.7,1.8,1.5c0.9,0.8,2,1.4,3.2,1.9c1.2,0.5,2.5,0.7,4,0.7c2.1,0,3.9-0.4,5.2-1.2
		c1.3-0.8,2-2,2-3.6c0-1.1-0.3-1.9-0.9-2.6c-0.6-0.7-1.7-1.3-3.3-1.8c-1.6-0.6-3.9-1.2-7.1-1.9c-4.5-1-7.9-2.4-10-4.4
		c-2.2-2-3.2-4.6-3.2-7.8c0-2.1,0.6-4.1,1.9-6c1.3-1.9,3.2-3.4,5.7-4.6c2.5-1.2,5.6-1.8,9.1-1.8c3.6,0,6.7,0.6,9.4,1.7
		c2.6,1.1,4.6,2.5,6,4.1s2,3,2,4.2c0,0.5-0.2,0.9-0.5,1.2c-0.3,0.3-0.8,0.5-1.2,0.5h-6c-0.6,0-1-0.2-1.4-0.6c-0.4-0.3-1-0.8-1.8-1.5
		c-0.8-0.7-1.7-1.3-2.8-1.7c-1-0.4-2.2-0.6-3.7-0.6c-2,0-3.5,0.4-4.6,1.3c-1.1,0.9-1.6,2-1.6,3.4c0,1,0.3,1.8,0.8,2.4
		c0.5,0.6,1.5,1.2,3.1,1.8c1.5,0.6,3.9,1.1,7,1.7c9.6,1.9,14.4,6.1,14.4,12.6c0,3.8-1.6,6.9-4.9,9.2c-3.3,2.3-7.9,3.5-13.7,3.5
		C175.1,59,171.8,58.3,169,57.1z"/>
	<path class="st0" d="M200.6,57.6c-0.4-0.4-0.6-0.8-0.6-1.4v-53c0-0.6,0.2-1.1,0.6-1.4c0.4-0.3,0.8-0.5,1.4-0.5h7.3
		c0.6,0,1.1,0.2,1.4,0.5c0.3,0.3,0.5,0.8,0.5,1.4v18.2c3.2-3.8,7.5-5.8,12.9-5.8c4.9,0,8.8,1.6,11.8,4.8c2.9,3.2,4.4,7.6,4.4,13.2
		v22.5c0,0.5-0.2,1-0.5,1.4c-0.3,0.4-0.8,0.6-1.4,0.6H231c-0.6,0-1.1-0.2-1.4-0.6c-0.4-0.4-0.6-0.8-0.6-1.4v-22
		c0-3.1-0.8-5.5-2.3-7.2c-1.5-1.7-3.7-2.6-6.5-2.6c-2.7,0-4.9,0.9-6.6,2.6c-1.7,1.8-2.5,4.2-2.5,7.2v22c0,0.5-0.2,1-0.5,1.4
		c-0.3,0.4-0.8,0.6-1.4,0.6H202C201.5,58.2,201,58,200.6,57.6z"/>
</g>
</svg>
